# xmcd
#
# Track frame offsets:
#	150
#	20949
#	46284
#	60682
#	69019
#	85521
#	101017
#	114814
#	128168
#	145818
#	158803
#	174082
#	190005
#	201390
#
# Disc length: 2857 seconds
#
# Revision: 2
# Processed by: cddbd v1.5.2PL0 Copyright (c) Steve Scherf et al.
# Submitted via: audiograbber 1.83.01
#
DISCID=b20b270e
DTITLE=Burrito Brothers - The Muscle Shoes Demo Sessions [CD2]
DYEAR=2001
DGENRE=Country
TTITLE0=Moonlight Rider
TTITLE1=Like A Shadow
TTITLE2=Shoot For The Moon
TTITLE3=Red Shoes
TTITLE4=Burning Embers
TTITLE5=Back To The Sweethearts Of The Rodeo
TTITLE6=Burn The Midnight Oil
TTITLE7=Last Call
TTITLE8=True, True Love
TTITLE9=I'm Impressed
TTITLE10=Gold Guitar
TTITLE11=Let's Do Something Crazy
TTITLE12=You Should Know Me By Now
TTITLE13=This Could Be The Night
EXTD=
EXTT0=
EXTT1=
EXTT2=
EXTT3=
EXTT4=
EXTT5=
EXTT6=
EXTT7=
EXTT8=
EXTT9=
EXTT10=
EXTT11=
EXTT12=
EXTT13=
PLAYORDER=
